<?xml version="1.0" encoding="UTF-8" standalone="no"?>
<svg width="50px" height="37px" viewBox="0 0 50 37" version="1.1" xmlns="http://www.w3.org/2000/svg" xmlns:xlink="http://www.w3.org/1999/xlink">
    <!-- Generator: Sketch 40 (33762) - http://www.bohemiancoding.com/sketch -->
    <title>fog</title>
    <desc>Created with Sketch.</desc>
    <defs></defs>
    <g id="Symbols" stroke="none" stroke-width="1" fill="none" fill-rule="evenodd">
        <g id="fog" fill="#FFFFFF">
            <g id="Page-1">
                <path d="M1.08687289,22.3932349 C1.68682673,22.3932349 2.17374578,21.9038608 2.17374578,21.300882 C2.17374578,15.6752644 6.6516621,10.9235292 11.9556018,10.9235292 C13.3250617,10.9235292 14.6771315,11.2228339 15.9770315,11.8148892 C16.2922246,11.9590798 16.6574139,11.9416022 16.9639121,11.7690104 C17.263889,11.5942339 17.4660474,11.2861904 17.5051748,10.9388222 C18.0529587,5.94895402 22.2069869,2.18470585 27.1718223,2.18470585 C31.8127695,2.18470585 35.8428942,5.50108932 36.7580412,10.0693092 C36.862381,10.5914539 37.3058251,10.9169751 37.8557828,10.9453763 C37.9340377,10.9431916 38.0101188,10.9344528 38.0405512,10.9235292 C43.3423172,10.9235292 47.8224072,15.6752644 47.8224072,21.300882 C47.8224072,21.9038608 48.3093263,22.3932349 48.9092801,22.3932349 C49.509234,22.3932349 49.996153,21.9038608 49.996153,21.300882 C49.996153,14.7161786 44.874808,9.1189622 38.6796325,8.75630103 C37.2449603,3.63316582 32.5409744,0 27.1718223,0 C21.5657319,0 16.8008812,3.91936229 15.5748885,9.31777044 C14.3945446,8.93326221 13.1815944,8.73882339 11.9556018,8.73882339 C5.47566563,8.73882339 0,14.4911539 0,21.300882 C0,21.9038608 0.486919056,22.3932349 1.08687289,22.3932349" id="Fill-1"></path>
                <path d="M48.9092801,27.3088231 C49.509234,27.3088231 49.996153,26.819449 49.996153,26.2164702 C49.996153,25.6134913 49.509234,25.1241172 48.9092801,25.1241172 L1.08687289,25.1241172 C0.486919056,25.1241172 0,25.6134913 0,26.2164702 C0,26.819449 0.486919056,27.3088231 1.08687289,27.3088231 L48.9092801,27.3088231 Z" id="Fill-3"></path>
                <path d="M1.08687289,31.6782348 L48.9092801,31.6782348 C49.509234,31.6782348 49.996153,31.1888607 49.996153,30.5858819 C49.996153,29.982903 49.509234,29.4935289 48.9092801,29.4935289 L1.08687289,29.4935289 C0.486919056,29.4935289 0,29.982903 0,30.5858819 C0,31.1888607 0.486919056,31.6782348 1.08687289,31.6782348" id="Fill-5"></path>
                <path d="M1.08687289,36.0476465 L48.9092801,36.0476465 C49.509234,36.0476465 49.996153,35.5582724 49.996153,34.9552935 C49.996153,34.3523147 49.509234,33.8629406 48.9092801,33.8629406 L1.08687289,33.8629406 C0.486919056,33.8629406 0,34.3523147 0,34.9552935 C0,35.5582724 0.486919056,36.0476465 1.08687289,36.0476465" id="Fill-7"></path>
            </g>
        </g>
    </g>
</svg>