<?xml version="1.0" encoding="UTF-8" standalone="no"?>
<svg width="50px" height="50px" viewBox="0 0 50 50" version="1.1" xmlns="http://www.w3.org/2000/svg" xmlns:xlink="http://www.w3.org/1999/xlink">
    <!-- Generator: Sketch 40 (33762) - http://www.bohemiancoding.com/sketch -->
    <title>sunny</title>
    <desc>Created with Sketch.</desc>
    <defs></defs>
    <g id="Symbols" stroke="none" stroke-width="1" fill="none" fill-rule="evenodd">
        <g id="sunny" fill="#FFFFFF">
            <g id="Page-1">
                <path d="M25.2685484,13.441129 C31.4943548,13.441129 36.558871,18.5056452 36.558871,24.7314516 C36.558871,30.9572581 31.4943548,36.0217742 25.2685484,36.0217742 C19.0427419,36.0217742 13.9782258,30.9572581 13.9782258,24.7314516 C13.9782258,18.5056452 19.0427419,13.441129 25.2685484,13.441129 M25.2685484,37.6346774 C32.3830645,37.6346774 38.1717742,31.8459677 38.1717742,24.7314516 C38.1717742,17.6169355 32.3830645,11.8282258 25.2685484,11.8282258 C18.1540323,11.8282258 12.3653226,17.6169355 12.3653226,24.7314516 C12.3653226,31.8459677 18.1540323,37.6346774 25.2685484,37.6346774" id="Fill-1"></path>
                <path d="M24.1935484,8.06451613 C24.6387097,8.06451613 25,7.70322581 25,7.25806452 L25,0.806451613 C25,0.361290323 24.6387097,0 24.1935484,0 C23.7483871,0 23.3870968,0.361290323 23.3870968,0.806451613 L23.3870968,7.25806452 C23.3870968,7.70322581 23.7483871,8.06451613 24.1935484,8.06451613" id="Fill-3"></path>
                <path d="M25,49.1935484 L25,42.7419355 C25,42.2967742 24.6387097,41.9354839 24.1935484,41.9354839 C23.7483871,41.9354839 23.3870968,42.2967742 23.3870968,42.7419355 L23.3870968,49.1935484 C23.3870968,49.6387097 23.7483871,50 24.1935484,50 C24.6387097,50 25,49.6387097 25,49.1935484" id="Fill-5"></path>
                <path d="M8.06451613,25.8064516 C8.06451613,25.3612903 7.70322581,25 7.25806452,25 L0.806451613,25 C0.361290323,25 0,25.3612903 0,25.8064516 C0,26.2516129 0.361290323,26.6129032 0.806451613,26.6129032 L7.25806452,26.6129032 C7.70322581,26.6129032 8.06451613,26.2516129 8.06451613,25.8064516" id="Fill-7"></path>
                <path d="M49.1935484,25 L42.7419355,25 C42.2967742,25 41.9354839,25.3612903 41.9354839,25.8064516 C41.9354839,26.2516129 42.2967742,26.6129032 42.7419355,26.6129032 L49.1935484,26.6129032 C49.6387097,26.6129032 50,26.2516129 50,25.8064516 C50,25.3612903 49.6387097,25 49.1935484,25" id="Fill-9"></path>
                <path d="M9.00016129,42.408871 L13.5630645,37.8459677 C13.8775806,37.5314516 13.8775806,37.0217742 13.5630645,36.7056452 C13.2469355,36.391129 12.7372581,36.391129 12.4227419,36.7056452 L7.85983871,41.2685484 C7.54532258,41.5830645 7.54532258,42.0943548 7.85983871,42.408871 C8.01790323,42.5669355 8.22435484,42.6443548 8.42919355,42.6443548 C8.63564516,42.6443548 8.84209677,42.5669355 9.00016129,42.408871" id="Fill-11"></path>
                <path d="M38.0827419,12.9922581 C38.2891935,12.9922581 38.4956452,12.9132258 38.6537097,12.7567742 L43.215,8.19387097 C43.531129,7.87935484 43.531129,7.36806452 43.215,7.05354839 C42.9004839,6.73903226 42.3891935,6.73903226 42.0746774,7.05354839 L37.5117742,11.6148387 C37.1972581,11.9309677 37.1972581,12.4406452 37.5117742,12.7567742 C37.6698387,12.9132258 37.8762903,12.9922581 38.0827419,12.9922581" id="Fill-13"></path>
                <path d="M38.6529032,36.706129 C38.3383871,36.3916129 37.8270968,36.3916129 37.5125806,36.706129 C37.1980645,37.0206452 37.1980645,37.5319355 37.5125806,37.8464516 L42.0754839,42.4093548 C42.2319355,42.5658065 42.4383871,42.6448387 42.6448387,42.6448387 C42.8512903,42.6448387 43.0577419,42.5658065 43.2158065,42.4093548 C43.5303226,42.0932258 43.5303226,41.5835484 43.2158065,41.2690323 L38.6529032,36.706129 Z" id="Fill-15"></path>
                <path d="M12.4220968,12.7559677 C12.5801613,12.9140323 12.7866129,12.9914516 12.9930645,12.9914516 C13.1979032,12.9914516 13.4043548,12.9140323 13.5624194,12.7559677 C13.8769355,12.4414516 13.8769355,11.9301613 13.5624194,11.6156452 L8.99951613,7.05274194 C8.685,6.73822581 8.17532258,6.73822581 7.85919355,7.05274194 C7.54467742,7.36887097 7.54467742,7.87854839 7.85919355,8.19306452 L12.4220968,12.7559677 Z" id="Fill-17"></path>
            </g>
        </g>
    </g>
</svg>