<?xml version="1.0" encoding="UTF-8" standalone="no"?>
<svg width="50px" height="38px" viewBox="0 0 50 38" version="1.1" xmlns="http://www.w3.org/2000/svg" xmlns:xlink="http://www.w3.org/1999/xlink">
    <!-- Generator: Sketch 40 (33762) - http://www.bohemiancoding.com/sketch -->
    <title>windy</title>
    <desc>Created with Sketch.</desc>
    <defs>
        <polygon id="path-1" points="49.8214286 0.219 0.535714286 0.219 0.535714286 23.5935 49.8214286 23.5935 49.8214286 11.90625"></polygon>
        <polygon id="path-3" points="0.178083665 10.5 10.0915649 10.5 10.0915649 0.00120454352 0.178083665 0.00120454352 0.178083665 10.5"></polygon>
    </defs>
    <g id="Symbols" stroke="none" stroke-width="1" fill="none" fill-rule="evenodd">
        <g id="windy">
            <g id="Page-1">
                <g id="Group-3" transform="translate(0.000000, 0.281750)">
                    <mask id="mask-2" fill="white">
                        <use xlink:href="#path-1"></use>
                    </mask>
                    <g id="Clip-2"></g>
                    <path d="M38.0357143,22.0935 L12.3214286,22.0935 C7.185,22.0935 2.67857143,18.735 2.67857143,14.9055 C2.67857143,11.0775 7.185,7.7175 12.3214286,7.7175 C13.6714286,7.7175 15.0042857,7.9245 16.2835714,8.3295 C16.5964286,8.43 16.9564286,8.4165 17.2564286,8.298 C17.5542857,8.1795 17.7535714,7.9665 17.79,7.7295 C18.3321429,4.302 22.4292857,1.7175 27.3214286,1.7175 C31.8964286,1.7175 35.8714286,3.9945 36.7714286,7.131 C36.8721429,7.482 37.3135714,7.734 37.8214286,7.734 C37.9264286,7.7415 38.0035714,7.7265 38.0357143,7.7175 C43.1721429,7.7175 47.6785714,11.0775 47.6785714,14.9055 C47.6785714,18.735 43.1721429,22.0935 38.0357143,22.0935 M38.6635714,6.231 C37.2514286,2.712 32.6142857,0.2175 27.3214286,0.2175 C21.795,0.2175 17.0978571,2.9085 15.8892857,6.6165 C14.7257143,6.351 13.53,6.2175 12.3214286,6.2175 C5.93357143,6.2175 0.535714286,10.197 0.535714286,14.9055 C0.535714286,19.6155 5.93357143,23.5935 12.3214286,23.5935 L38.0357143,23.5935 C44.4235714,23.5935 49.8214286,19.6155 49.8214286,14.9055 C49.8214286,10.3515 44.7728571,6.4815 38.6635714,6.231" id="Fill-1" fill="#FFFFFF" mask="url(#mask-2)"></path>
                </g>
                <g id="Group-6" transform="translate(12.857143, 27.281750)">
                    <mask id="mask-4" fill="white">
                        <use xlink:href="#path-3"></use>
                    </mask>
                    <g id="Clip-5"></g>
                    <path d="M0.505285714,10.2891 C0.713142857,10.4301 0.981,10.5006 1.251,10.5006 C1.53171429,10.5006 1.81028571,10.4241 2.02028571,10.2711 L8.80671429,5.3646 C9.10457143,5.1486 9.19028571,4.8276 9.02314286,4.5501 C8.85385714,4.2741 8.466,4.0941 8.03528571,4.0941 L5.45528571,4.0941 L9.74957143,1.3011 C10.1824286,1.0191 10.2081429,0.5436 9.80528571,0.2406 C9.40242857,-0.0624 8.72314286,-0.0804 8.29028571,0.2016 L1.99885714,4.2936 C1.67528571,4.5036 1.57028571,4.8306 1.731,5.1171 C1.89171429,5.4051 2.28814286,5.5941 2.72742857,5.5941 L5.50671429,5.5941 L0.479571429,9.2286 C0.0681428571,9.5256 0.0788571429,10.0011 0.505285714,10.2891" id="Fill-4" fill="#FFFFFF" mask="url(#mask-4)"></path>
                </g>
                <path d="M30.7637143,31.7759 L36.1144286,28.0304 C36.5322857,27.7379 36.5322857,27.2624 36.1144286,26.9699 C35.6965714,26.6774 35.0172857,26.6774 34.5994286,26.9699 L29.2487143,30.7154 C28.8308571,31.0079 28.8308571,31.4834 29.2487143,31.7759 C29.4587143,31.9229 29.733,31.9949 30.0051429,31.9949 C30.2815714,31.9949 30.5537143,31.9229 30.7637143,31.7759" id="Fill-7" fill="#FFFFFF"></path>
                <path d="M25.4003571,35.53025 L27.5432143,34.03025 C27.9610714,33.73775 27.9610714,33.26225 27.5432143,32.96975 C27.1253571,32.67725 26.4460714,32.67725 26.0282143,32.96975 L23.8853571,34.46975 C23.4675,34.76225 23.4675,35.23775 23.8853571,35.53025 C24.0953571,35.67725 24.3696429,35.74925 24.6439286,35.74925 C24.9160714,35.74925 25.1903571,35.67725 25.4003571,35.53025" id="Fill-9" fill="#FFFFFF"></path>
                <path d="M7.19228571,31.7759 L12.543,28.0304 C12.9608571,27.7379 12.9608571,27.2624 12.543,26.9699 C12.1251429,26.6774 11.4458571,26.6774 11.028,26.9699 L5.67728571,30.7154 C5.25942857,31.0079 5.25942857,31.4834 5.67728571,31.7759 C5.88728571,31.9229 6.16157143,31.9949 6.43371429,31.9949 C6.71014286,31.9949 6.98228571,31.9229 7.19228571,31.7759" id="Fill-11" fill="#FFFFFF"></path>
                <path d="M1.82892857,35.53025 L3.97178571,34.03025 C4.38964286,33.73775 4.38964286,33.26225 3.97178571,32.96975 C3.55392857,32.67725 2.87464286,32.67725 2.45678571,32.96975 L0.313928571,34.46975 C-0.103928571,34.76225 -0.103928571,35.23775 0.313928571,35.53025 C0.523928571,35.67725 0.798214286,35.74925 1.0725,35.74925 C1.34464286,35.74925 1.61892857,35.67725 1.82892857,35.53025" id="Fill-13" fill="#FFFFFF"></path>
            </g>
        </g>
    </g>
</svg>