<?xml version="1.0" encoding="UTF-8" standalone="no"?>
<svg width="49px" height="23px" viewBox="0 0 49 23" version="1.1" xmlns="http://www.w3.org/2000/svg" xmlns:xlink="http://www.w3.org/1999/xlink">
    <!-- Generator: Sketch 40 (33762) - http://www.bohemiancoding.com/sketch -->
    <title>Page 1</title>
    <desc>Created with Sketch.</desc>
    <defs>
        <polygon id="path-1" points="16.164728 22.2199993 32.3285559 22.2199993 32.3285559 3.28922065e-15 16.164728 0 0.000900115713 3.28922065e-15 0.000900115713 22.2199993 16.164728 22.2199993"></polygon>
    </defs>
    <g id="Symbols" stroke="none" stroke-width="1" fill="none" fill-rule="evenodd">
        <g id="Page-1">
            <path d="M23.4030085,13.8874996 C23.4030085,13.3764396 22.9997567,12.9616663 22.5028928,12.9616663 L0.900115713,12.9616663 C0.403251839,12.9616663 0,13.3764396 0,13.8874996 C0,14.3985596 0.403251839,14.8133329 0.900115713,14.8133329 L22.5028928,14.8133329 C22.9997567,14.8133329 23.4030085,14.3985596 23.4030085,13.8874996" id="Fill-1" fill="#FFFFFF"></path>
            <g id="Group-5" transform="translate(16.202083, 0.000000)">
                <mask id="mask-2" fill="white">
                    <use xlink:href="#path-1"></use>
                </mask>
                <g id="Clip-4"></g>
                <path d="M22.3147686,0 C21.8179048,0 21.4146529,0.414773321 21.4146529,0.925833305 C21.4146529,1.43689329 21.8179048,1.85166661 22.3147686,1.85166661 C26.6137213,1.85166661 30.5292246,6.26418814 30.5292246,11.1099997 C30.5292246,15.4799329 27.0637791,20.3683327 22.4281832,20.3683327 L0.901015829,20.3683327 C0.402351724,20.3683327 0.000900115713,20.783106 0.000900115713,21.294166 C0.000900115713,21.805226 0.402351724,22.2199993 0.901015829,22.2199993 L22.4281832,22.2199993 C27.7010611,22.2199993 32.3294561,17.0279261 32.3294561,11.1099997 C32.3294561,5.2957665 27.5552423,0 22.3147686,0" id="Fill-3" fill="#FFFFFF" mask="url(#mask-2)"></path>
            </g>
            <path d="M30.4334523,18.5166661 C33.7044728,18.5166661 36.2445994,14.7837062 36.2445994,11.5729163 C36.2445994,8.18436641 33.6036599,5.3235415 30.4766579,5.3235415 C29.979794,5.3235415 29.5765422,5.73831482 29.5765422,6.24937481 C29.5765422,6.76043479 29.979794,7.17520811 30.4766579,7.17520811 C32.6279344,7.17520811 34.4443679,9.18796972 34.4443679,11.5729163 C34.4443679,13.8652796 32.5919298,16.6649995 30.4334523,16.6649995 L8.10158149,16.6649995 C7.60291738,16.6649995 7.20146577,17.0797728 7.20146577,17.5908328 C7.20146577,18.1018928 7.60291738,18.5166661 8.10158149,18.5166661 L30.4334523,18.5166661 Z" id="Fill-6" fill="#FFFFFF"></path>
        </g>
    </g>
</svg>