<?xml version="1.0" encoding="UTF-8" standalone="no"?>
<svg width="50px" height="35px" viewBox="0 0 50 35" version="1.1" xmlns="http://www.w3.org/2000/svg" xmlns:xlink="http://www.w3.org/1999/xlink">
    <!-- Generator: Sketch 40 (33762) - http://www.bohemiancoding.com/sketch -->
    <title>cloudy</title>
    <desc>Created with Sketch.</desc>
    <defs>
        <polygon id="path-1" points="49.8214286 0.318545455 0.535714286 0.318545455 0.535714286 34.3178182 49.8214286 34.3178182 49.8214286 17.3181818"></polygon>
    </defs>
    <g id="Symbols" stroke="none" stroke-width="1" fill="none" fill-rule="evenodd">
        <g id="cloudy">
            <g id="Page-1-Copy">
                <g id="Group-3" transform="translate(0.000000, 0.409818)">
                    <mask id="mask-2" fill="white">
                        <use xlink:href="#path-1"></use>
                    </mask>
                    <g id="Clip-2"></g>
                    <path d="M38.0357143,32.136 L12.3214286,32.136 C7.185,32.136 2.67857143,27.2509091 2.67857143,21.6807273 C2.67857143,16.1127273 7.185,11.2254545 12.3214286,11.2254545 C13.6714286,11.2254545 15.0042857,11.5265455 16.2835714,12.1156364 C16.5964286,12.2618182 16.9564286,12.2421818 17.2564286,12.0698182 C17.5542857,11.8974545 17.7535714,11.5876364 17.79,11.2429091 C18.3321429,6.25745455 22.4292857,2.49818182 27.3214286,2.49818182 C31.8964286,2.49818182 35.8714286,5.81018182 36.7714286,10.3723636 C36.8721429,10.8829091 37.3135714,11.2494545 37.8214286,11.2494545 C37.9264286,11.2603636 38.0035714,11.2385455 38.0357143,11.2254545 C43.1721429,11.2254545 47.6785714,16.1127273 47.6785714,21.6807273 C47.6785714,27.2509091 43.1721429,32.136 38.0357143,32.136 M38.6635714,9.06327273 C37.2514286,3.94472727 32.6142857,0.316363636 27.3214286,0.316363636 C21.795,0.316363636 17.0978571,4.23054545 15.8892857,9.624 C14.7257143,9.23781818 13.53,9.04363636 12.3214286,9.04363636 C5.93357143,9.04363636 0.535714286,14.832 0.535714286,21.6807273 C0.535714286,28.5316364 5.93357143,34.3178182 12.3214286,34.3178182 L38.0357143,34.3178182 C44.4235714,34.3178182 49.8214286,28.5316364 49.8214286,21.6807273 C49.8214286,15.0567273 44.7728571,9.42763636 38.6635714,9.06327273" id="Fill-1" fill="#FFFFFF" mask="url(#mask-2)"></path>
                </g>
            </g>
        </g>
    </g>
</svg>