<?xml version="1.0" encoding="UTF-8" standalone="no"?>
<svg width="50px" height="44px" viewBox="0 0 50 44" version="1.1" xmlns="http://www.w3.org/2000/svg" xmlns:xlink="http://www.w3.org/1999/xlink">
    <!-- Generator: Sketch 40 (33762) - http://www.bohemiancoding.com/sketch -->
    <title>rain</title>
    <desc>Created with Sketch.</desc>
    <defs>
        <polygon id="path-1" points="49.8214286 0.269538462 0.535714286 0.269538462 0.535714286 29.0381538 49.8214286 29.0381538 49.8214286 14.6538462"></polygon>
    </defs>
    <g id="Symbols" stroke="none" stroke-width="1" fill="none" fill-rule="evenodd">
        <g id="rain">
            <g id="Page-1">
                <g id="Group-3" transform="translate(0.000000, 0.346769)">
                    <mask id="mask-2" fill="white">
                        <use xlink:href="#path-1"></use>
                    </mask>
                    <g id="Clip-2"></g>
                    <path d="M38.0357143,27.192 L12.3214286,27.192 C7.185,27.192 2.67857143,23.0584615 2.67857143,18.3452308 C2.67857143,13.6338462 7.185,9.49846154 12.3214286,9.49846154 C13.6714286,9.49846154 15.0042857,9.75323077 16.2835714,10.2516923 C16.5964286,10.3753846 16.9564286,10.3587692 17.2564286,10.2129231 C17.5542857,10.0670769 17.7535714,9.80492308 17.79,9.51323077 C18.3321429,5.29476923 22.4292857,2.11384615 27.3214286,2.11384615 C31.8964286,2.11384615 35.8714286,4.91630769 36.7714286,8.77661538 C36.8721429,9.20861538 37.3135714,9.51876923 37.8214286,9.51876923 C37.9264286,9.528 38.0035714,9.50953846 38.0357143,9.49846154 C43.1721429,9.49846154 47.6785714,13.6338462 47.6785714,18.3452308 C47.6785714,23.0584615 43.1721429,27.192 38.0357143,27.192 M38.6635714,7.66892308 C37.2514286,3.33784615 32.6142857,0.267692308 27.3214286,0.267692308 C21.795,0.267692308 17.0978571,3.57969231 15.8892857,8.14338462 C14.7257143,7.81661538 13.53,7.65230769 12.3214286,7.65230769 C5.93357143,7.65230769 0.535714286,12.5501538 0.535714286,18.3452308 C0.535714286,24.1421538 5.93357143,29.0381538 12.3214286,29.0381538 L38.0357143,29.0381538 C44.4235714,29.0381538 49.8214286,24.1421538 49.8214286,18.3452308 C49.8214286,12.7403077 44.7728571,7.97723077 38.6635714,7.66892308" id="Fill-1" fill="#FFFFFF" mask="url(#mask-2)"></path>
                </g>
                <path d="M30.8283929,39.1850769 L36.1791071,34.5752308 C36.5969643,34.2152308 36.5969643,33.63 36.1791071,33.27 C35.76125,32.91 35.0819643,32.91 34.6641071,33.27 L29.3133929,37.8798462 C28.8955357,38.2398462 28.8955357,38.8250769 29.3133929,39.1850769 C29.5233929,39.366 29.7976786,39.4546154 30.0698214,39.4546154 C30.34625,39.4546154 30.6183929,39.366 30.8283929,39.1850769" id="Fill-7" fill="#FFFFFF"></path>
                <path d="M18.8283929,39.1850769 L24.1791071,34.5752308 C24.5969643,34.2152308 24.5969643,33.63 24.1791071,33.27 C23.76125,32.91 23.0819643,32.91 22.6641071,33.27 L17.3133929,37.8798462 C16.8955357,38.2398462 16.8955357,38.8250769 17.3133929,39.1850769 C17.5233929,39.366 17.7976786,39.4546154 18.0698214,39.4546154 C18.34625,39.4546154 18.6183929,39.366 18.8283929,39.1850769" id="Fill-7-Copy" fill="#FFFFFF"></path>
                <path d="M25.8283929,43.4213846 L27.97125,41.5752308 C28.3891071,41.2152308 28.3891071,40.63 27.97125,40.27 C27.5533929,39.91 26.8741071,39.91 26.45625,40.27 L24.3133929,42.1161538 C23.8955357,42.4761538 23.8955357,43.0613846 24.3133929,43.4213846 C24.5233929,43.6023077 24.7976786,43.6909231 25.0719643,43.6909231 C25.3441071,43.6909231 25.6183929,43.6023077 25.8283929,43.4213846" id="Fill-9" fill="#FFFFFF"></path>
                <path d="M13.8283929,43.4213846 L15.97125,41.5752308 C16.3891071,41.2152308 16.3891071,40.63 15.97125,40.27 C15.5533929,39.91 14.8741071,39.91 14.45625,40.27 L12.3133929,42.1161538 C11.8955357,42.4761538 11.8955357,43.0613846 12.3133929,43.4213846 C12.5233929,43.6023077 12.7976786,43.6909231 13.0719643,43.6909231 C13.3441071,43.6909231 13.6183929,43.6023077 13.8283929,43.4213846" id="Fill-9-Copy" fill="#FFFFFF"></path>
                <path d="M7.19228571,39.1088 L12.543,34.4989538 C12.9608571,34.1389538 12.9608571,33.5537231 12.543,33.1937231 C12.1251429,32.8337231 11.4458571,32.8337231 11.028,33.1937231 L5.67728571,37.8035692 C5.25942857,38.1635692 5.25942857,38.7488 5.67728571,39.1088 C5.88728571,39.2897231 6.16157143,39.3783385 6.43371429,39.3783385 C6.71014286,39.3783385 6.98228571,39.2897231 7.19228571,39.1088" id="Fill-11" fill="#FFFFFF"></path>
                <path d="M1.82892857,43.7295385 L3.97178571,41.8833846 C4.38964286,41.5233846 4.38964286,40.9381538 3.97178571,40.5781538 C3.55392857,40.2181538 2.87464286,40.2181538 2.45678571,40.5781538 L0.313928571,42.4243077 C-0.103928571,42.7843077 -0.103928571,43.3695385 0.313928571,43.7295385 C0.523928571,43.9104615 0.798214286,43.9990769 1.0725,43.9990769 C1.34464286,43.9990769 1.61892857,43.9104615 1.82892857,43.7295385" id="Fill-13" fill="#FFFFFF"></path>
            </g>
        </g>
    </g>
</svg>