<?xml version="1.0" encoding="UTF-8" standalone="no"?>
<svg width="50px" height="52px" viewBox="0 0 50 52" version="1.1" xmlns="http://www.w3.org/2000/svg" xmlns:xlink="http://www.w3.org/1999/xlink">
    <!-- Generator: Sketch 40 (33762) - http://www.bohemiancoding.com/sketch -->
    <title>rainy</title>
    <desc>Created with Sketch.</desc>
    <defs>
        <polygon id="path-1" points="49.8214286 0.318545455 0.535714286 0.318545455 0.535714286 34.3178182 49.8214286 34.3178182 49.8214286 17.3181818"></polygon>
    </defs>
    <g id="Symbols" stroke="none" stroke-width="1" fill="none" fill-rule="evenodd">
        <g id="rainy">
            <g id="Page-1-Copy">
                <g id="Group-3" transform="translate(0.000000, 0.409818)">
                    <mask id="mask-2" fill="white">
                        <use xlink:href="#path-1"></use>
                    </mask>
                    <g id="Clip-2"></g>
                    <path d="M38.0357143,32.136 L12.3214286,32.136 C7.185,32.136 2.67857143,27.2509091 2.67857143,21.6807273 C2.67857143,16.1127273 7.185,11.2254545 12.3214286,11.2254545 C13.6714286,11.2254545 15.0042857,11.5265455 16.2835714,12.1156364 C16.5964286,12.2618182 16.9564286,12.2421818 17.2564286,12.0698182 C17.5542857,11.8974545 17.7535714,11.5876364 17.79,11.2429091 C18.3321429,6.25745455 22.4292857,2.49818182 27.3214286,2.49818182 C31.8964286,2.49818182 35.8714286,5.81018182 36.7714286,10.3723636 C36.8721429,10.8829091 37.3135714,11.2494545 37.8214286,11.2494545 C37.9264286,11.2603636 38.0035714,11.2385455 38.0357143,11.2254545 C43.1721429,11.2254545 47.6785714,16.1127273 47.6785714,21.6807273 C47.6785714,27.2509091 43.1721429,32.136 38.0357143,32.136 M38.6635714,9.06327273 C37.2514286,3.94472727 32.6142857,0.316363636 27.3214286,0.316363636 C21.795,0.316363636 17.0978571,4.23054545 15.8892857,9.624 C14.7257143,9.23781818 13.53,9.04363636 12.3214286,9.04363636 C5.93357143,9.04363636 0.535714286,14.832 0.535714286,21.6807273 C0.535714286,28.5316364 5.93357143,34.3178182 12.3214286,34.3178182 L38.0357143,34.3178182 C44.4235714,34.3178182 49.8214286,28.5316364 49.8214286,21.6807273 C49.8214286,15.0567273 44.7728571,9.42763636 38.6635714,9.06327273" id="Fill-1" fill="#FFFFFF" mask="url(#mask-2)"></path>
                </g>
                <path d="M30.8283929,46.3096364 L36.1791071,40.8616364 C36.5969643,40.4361818 36.5969643,39.7445455 36.1791071,39.3190909 C35.76125,38.8936364 35.0819643,38.8936364 34.6641071,39.3190909 L29.3133929,44.7670909 C28.8955357,45.1925455 28.8955357,45.8841818 29.3133929,46.3096364 C29.5233929,46.5234545 29.7976786,46.6281818 30.0698214,46.6281818 C30.34625,46.6281818 30.6183929,46.5234545 30.8283929,46.3096364" id="Fill-7" fill="#FFFFFF"></path>
                <path d="M18.8283929,46.3096364 L24.1791071,40.8616364 C24.5969643,40.4361818 24.5969643,39.7445455 24.1791071,39.3190909 C23.76125,38.8936364 23.0819643,38.8936364 22.6641071,39.3190909 L17.3133929,44.7670909 C16.8955357,45.1925455 16.8955357,45.8841818 17.3133929,46.3096364 C17.5233929,46.5234545 17.7976786,46.6281818 18.0698214,46.6281818 C18.34625,46.6281818 18.6183929,46.5234545 18.8283929,46.3096364" id="Fill-7-Copy" fill="#FFFFFF"></path>
                <path d="M25.8283929,51.3161818 L27.97125,49.1343636 C28.3891071,48.7089091 28.3891071,48.0172727 27.97125,47.5918182 C27.5533929,47.1663636 26.8741071,47.1663636 26.45625,47.5918182 L24.3133929,49.7736364 C23.8955357,50.1990909 23.8955357,50.8907273 24.3133929,51.3161818 C24.5233929,51.53 24.7976786,51.6347273 25.0719643,51.6347273 C25.3441071,51.6347273 25.6183929,51.53 25.8283929,51.3161818" id="Fill-9" fill="#FFFFFF"></path>
                <path d="M13.8283929,51.3161818 L15.97125,49.1343636 C16.3891071,48.7089091 16.3891071,48.0172727 15.97125,47.5918182 C15.5533929,47.1663636 14.8741071,47.1663636 14.45625,47.5918182 L12.3133929,49.7736364 C11.8955357,50.1990909 11.8955357,50.8907273 12.3133929,51.3161818 C12.5233929,51.53 12.7976786,51.6347273 13.0719643,51.6347273 C13.3441071,51.6347273 13.6183929,51.53 13.8283929,51.3161818" id="Fill-9-Copy" fill="#FFFFFF"></path>
                <path d="M7.19228571,46.2194909 L12.543,40.7714909 C12.9608571,40.3460364 12.9608571,39.6544 12.543,39.2289455 C12.1251429,38.8034909 11.4458571,38.8034909 11.028,39.2289455 L5.67728571,44.6769455 C5.25942857,45.1024 5.25942857,45.7940364 5.67728571,46.2194909 C5.88728571,46.4333091 6.16157143,46.5380364 6.43371429,46.5380364 C6.71014286,46.5380364 6.98228571,46.4333091 7.19228571,46.2194909" id="Fill-11" fill="#FFFFFF"></path>
                <path d="M1.82892857,51.6803636 L3.97178571,49.4985455 C4.38964286,49.0730909 4.38964286,48.3814545 3.97178571,47.956 C3.55392857,47.5305455 2.87464286,47.5305455 2.45678571,47.956 L0.313928571,50.1378182 C-0.103928571,50.5632727 -0.103928571,51.2549091 0.313928571,51.6803636 C0.523928571,51.8941818 0.798214286,51.9989091 1.0725,51.9989091 C1.34464286,51.9989091 1.61892857,51.8941818 1.82892857,51.6803636" id="Fill-13" fill="#FFFFFF"></path>
            </g>
        </g>
    </g>
</svg>