<?xml version="1.0" encoding="UTF-8" standalone="no"?>
<svg width="50px" height="50px" viewBox="0 0 50 50" version="1.1" xmlns="http://www.w3.org/2000/svg" xmlns:xlink="http://www.w3.org/1999/xlink">
    <!-- Generator: Sketch 40 (33762) - http://www.bohemiancoding.com/sketch -->
    <title>snowy</title>
    <desc>Created with Sketch.</desc>
    <defs>
        <polygon id="path-1" points="50.0005292 35.3412504 50.0005292 0.101250013 0 0.101250013 0 17.7212502 0 35.3412504"></polygon>
    </defs>
    <g id="Symbols" stroke="none" stroke-width="1" fill="none" fill-rule="evenodd">
        <g id="snowy">
            <g id="Page-1">
                <g id="Group-3" transform="translate(0.000000, 0.101250)">
                    <mask id="mask-2" fill="white">
                        <use xlink:href="#path-1"></use>
                    </mask>
                    <g id="Clip-2"></g>
                    <path d="M11.9571682,11.1137501 C13.3268074,11.1137501 14.6790545,11.4154926 15.9769507,12.0123702 C16.2943592,12.1577352 16.6595963,12.1401152 16.9639606,11.9661176 C17.2661508,11.7921201 17.4683357,11.4815676 17.5052942,11.1291676 C18.0553239,6.09865758 22.2120704,2.30375004 27.1753822,2.30375004 C31.8169375,2.30375004 35.8497642,5.64714508 36.7628571,10.2503701 C36.8672105,10.7767676 37.3150608,11.1093451 37.8607425,11.1357751 C37.9390076,11.1335726 38.0150987,11.1247626 38.0455351,11.1137501 C43.6436638,11.1137501 47.8286727,16.9283502 47.8286727,22.1262503 C47.8286727,27.3241503 43.6436638,33.1387504 38.0455351,33.1387504 L11.9571682,33.1387504 C6.35686541,33.1387504 2.17403058,27.3241503 2.17403058,22.1262503 C2.17403058,16.9283502 6.35686541,11.1137501 11.9571682,11.1137501 M11.9571682,35.3412504 L38.0455351,35.3412504 C44.4132707,35.3412504 50.0027033,29.1654403 50.0027033,22.1262503 C50.0027033,15.3227277 44.7828559,9.32532012 38.6847001,8.93107261 C37.2498399,3.76400756 32.5474118,0.101250013 27.1753822,0.101250013 C21.5685574,0.101250013 16.8052564,4.05253506 15.5769291,9.49491262 C14.3964305,9.10727262 13.1833214,8.91125011 11.9571682,8.91125011 C5.58725858,8.91125011 0,15.0870602 0,22.1262503 C0,29.1654403 5.58725858,35.3412504 11.9571682,35.3412504" id="Fill-1" fill="#FFFFFF" mask="url(#mask-2)"></path>
                </g>
                <path d="M17.3918098,44.2525005 C17.3918098,44.8603905 17.8787927,45.3537505 18.4788251,45.3537505 C19.0788575,45.3537505 19.5658404,44.8603905 19.5658404,44.2525005 C19.5658404,43.6446105 19.0788575,43.1512505 18.4788251,43.1512505 C17.8787927,43.1512505 17.3918098,43.6446105 17.3918098,44.2525005" id="Fill-4" fill="#FFFFFF"></path>
                <path d="M28.2619627,44.2525005 C28.2619627,44.8603905 28.7489455,45.3537505 29.348978,45.3537505 C29.9490104,45.3537505 30.4359933,44.8603905 30.4359933,44.2525005 C30.4359933,43.6446105 29.9490104,43.1512505 29.348978,43.1512505 C28.7489455,43.1512505 28.2619627,43.6446105 28.2619627,44.2525005" id="Fill-6" fill="#FFFFFF"></path>
                <path d="M26.0879321,39.8475005 C26.0879321,39.2396105 25.6009493,38.7462505 25.0009168,38.7462505 C24.4008844,38.7462505 23.9139015,39.2396105 23.9139015,39.8475005 C23.9139015,40.4553905 24.4008844,40.9487505 25.0009168,40.9487505 C25.6009493,40.9487505 26.0879321,40.4553905 26.0879321,39.8475005" id="Fill-8" fill="#FFFFFF"></path>
                <path d="M35.8710697,40.9487505 C36.4711022,40.9487505 36.958085,40.4553905 36.958085,39.8475005 C36.958085,39.2396105 36.4711022,38.7462505 35.8710697,38.7462505 C35.2710373,38.7462505 34.7840544,39.2396105 34.7840544,39.8475005 C34.7840544,40.4553905 35.2710373,40.9487505 35.8710697,40.9487505 Z" id="Fill-10" fill="#FFFFFF"></path>
                <path d="M23.9139015,48.6575006 C23.9139015,48.0496106 23.4269187,47.5562506 22.8268863,47.5562506 C22.2268538,47.5562506 21.739871,48.0496106 21.739871,48.6575006 C21.739871,49.2653906 22.2268538,49.7587506 22.8268863,49.7587506 C23.4269187,49.7587506 23.9139015,49.2653906 23.9139015,48.6575006" id="Fill-12" fill="#FFFFFF"></path>
                <path d="M13.0437487,39.8475005 C13.0437487,40.4553905 13.5307315,40.9487505 14.1307639,40.9487505 C14.7307964,40.9487505 15.2177792,40.4553905 15.2177792,39.8475005 C15.2177792,39.2396105 14.7307964,38.7462505 14.1307639,38.7462505 C13.5307315,38.7462505 13.0437487,39.2396105 13.0437487,39.8475005" id="Fill-14" fill="#FFFFFF"></path>
            </g>
        </g>
    </g>
</svg>