<?xml version="1.0" encoding="UTF-8" standalone="no"?>
<svg width="50px" height="57px" viewBox="0 0 50 57" version="1.1" xmlns="http://www.w3.org/2000/svg" xmlns:xlink="http://www.w3.org/1999/xlink">
    <!-- Generator: Sketch 40 (33762) - http://www.bohemiancoding.com/sketch -->
    <title>thunder-storm</title>
    <desc>Created with Sketch.</desc>
    <defs>
        <polygon id="path-1" points="49.8214286 0.325692308 0.535714286 0.325692308 0.535714286 35.0877692 49.8214286 35.0877692 49.8214286 17.7067308"></polygon>
        <polygon id="path-3" points="0.178083665 15.6153846 10.0915649 15.6153846 10.0915649 0.00179137242 0.178083665 0.00179137242 0.178083665 15.6153846"></polygon>
    </defs>
    <g id="Symbols" stroke="none" stroke-width="1" fill="none" fill-rule="evenodd">
        <g id="thunder-storm">
            <g id="Page-1">
                <g id="Group-3" transform="translate(0.000000, 0.419013)">
                    <mask id="mask-2" fill="white">
                        <use xlink:href="#path-1"></use>
                    </mask>
                    <g id="Clip-2"></g>
                    <path d="M38.0357143,32.857 L12.3214286,32.857 C7.185,32.857 2.67857143,27.8623077 2.67857143,22.1671538 C2.67857143,16.4742308 7.185,11.4773077 12.3214286,11.4773077 C13.6714286,11.4773077 15.0042857,11.7851538 16.2835714,12.3874615 C16.5964286,12.5369231 16.9564286,12.5168462 17.2564286,12.3406154 C17.5542857,12.1643846 17.7535714,11.8476154 17.79,11.4951538 C18.3321429,6.39784615 22.4292857,2.55423077 27.3214286,2.55423077 C31.8964286,2.55423077 35.8714286,5.94053846 36.7714286,10.6050769 C36.8721429,11.1270769 37.3135714,11.5018462 37.8214286,11.5018462 C37.9264286,11.513 38.0035714,11.4906923 38.0357143,11.4773077 C43.1721429,11.4773077 47.6785714,16.4742308 47.6785714,22.1671538 C47.6785714,27.8623077 43.1721429,32.857 38.0357143,32.857 M38.6635714,9.26661538 C37.2514286,4.03323077 32.6142857,0.323461538 27.3214286,0.323461538 C21.795,0.323461538 17.0978571,4.32546154 15.8892857,9.83992308 C14.7257143,9.44507692 13.53,9.24653846 12.3214286,9.24653846 C5.93357143,9.24653846 0.535714286,15.1647692 0.535714286,22.1671538 C0.535714286,29.1717692 5.93357143,35.0877692 12.3214286,35.0877692 L38.0357143,35.0877692 C44.4235714,35.0877692 49.8214286,29.1717692 49.8214286,22.1671538 C49.8214286,15.3945385 44.7728571,9.63915385 38.6635714,9.26661538" id="Fill-1" fill="#FFFFFF" mask="url(#mask-2)"></path>
                </g>
                <g id="Group-6" transform="translate(12.857143, 40.572859)">
                    <mask id="mask-4" fill="white">
                        <use xlink:href="#path-3"></use>
                    </mask>
                    <g id="Clip-5"></g>
                    <path d="M0.505285714,15.3017385 C0.713142857,15.5114308 0.981,15.6162769 1.251,15.6162769 C1.53171429,15.6162769 1.81028571,15.5025077 2.02028571,15.2749692 L8.80671429,7.97812308 C9.10457143,7.65689231 9.19028571,7.17950769 9.02314286,6.76681538 C8.85385714,6.35635385 8.466,6.08866154 8.03528571,6.08866154 L5.45528571,6.08866154 L9.74957143,1.93496923 C10.1824286,1.51558462 10.2081429,0.808430769 9.80528571,0.357815385 C9.40242857,-0.0928 8.72314286,-0.119569231 8.29028571,0.299815385 L1.99885714,6.38535385 C1.67528571,6.69766154 1.57028571,7.18396923 1.731,7.61004615 C1.89171429,8.03835385 2.28814286,8.31943077 2.72742857,8.31943077 L5.50671429,8.31943077 L0.479571429,13.7245846 C0.0681428571,14.1662769 0.0788571429,14.8734308 0.505285714,15.3017385" id="Fill-4" fill="#FFFFFF" mask="url(#mask-4)"></path>
                </g>
                <path d="M30.7637143,47.2564667 L36.1144286,41.6862359 C36.5322857,41.2512359 36.5322857,40.5440821 36.1144286,40.1090821 C35.6965714,39.6740821 35.0172857,39.6740821 34.5994286,40.1090821 L29.2487143,45.6793128 C28.8308571,46.1143128 28.8308571,46.8214667 29.2487143,47.2564667 C29.4587143,47.4750821 29.733,47.582159 30.0051429,47.582159 C30.2815714,47.582159 30.5537143,47.4750821 30.7637143,47.2564667" id="Fill-7" fill="#FFFFFF"></path>
                <path d="M25.4003571,52.839859 L27.5432143,50.6090897 C27.9610714,50.1740897 27.9610714,49.4669359 27.5432143,49.0319359 C27.1253571,48.5969359 26.4460714,48.5969359 26.0282143,49.0319359 L23.8853571,51.2627051 C23.4675,51.6977051 23.4675,52.404859 23.8853571,52.839859 C24.0953571,53.0584744 24.3696429,53.1655513 24.6439286,53.1655513 C24.9160714,53.1655513 25.1903571,53.0584744 25.4003571,52.839859" id="Fill-9" fill="#FFFFFF"></path>
                <path d="M7.19228571,47.2564667 L12.543,41.6862359 C12.9608571,41.2512359 12.9608571,40.5440821 12.543,40.1090821 C12.1251429,39.6740821 11.4458571,39.6740821 11.028,40.1090821 L5.67728571,45.6793128 C5.25942857,46.1143128 5.25942857,46.8214667 5.67728571,47.2564667 C5.88728571,47.4750821 6.16157143,47.582159 6.43371429,47.582159 C6.71014286,47.582159 6.98228571,47.4750821 7.19228571,47.2564667" id="Fill-11" fill="#FFFFFF"></path>
                <path d="M1.82892857,52.839859 L3.97178571,50.6090897 C4.38964286,50.1740897 4.38964286,49.4669359 3.97178571,49.0319359 C3.55392857,48.5969359 2.87464286,48.5969359 2.45678571,49.0319359 L0.313928571,51.2627051 C-0.103928571,51.6977051 -0.103928571,52.404859 0.313928571,52.839859 C0.523928571,53.0584744 0.798214286,53.1655513 1.0725,53.1655513 C1.34464286,53.1655513 1.61892857,53.0584744 1.82892857,52.839859" id="Fill-13" fill="#FFFFFF"></path>
            </g>
        </g>
    </g>
</svg>