<?xml version="1.0" encoding="UTF-8" standalone="no"?>
<svg width="50px" height="47px" viewBox="0 0 50 47" version="1.1" xmlns="http://www.w3.org/2000/svg" xmlns:xlink="http://www.w3.org/1999/xlink">
    <!-- Generator: Sketch 40 (33762) - http://www.bohemiancoding.com/sketch -->
    <title>Page 1</title>
    <desc>Created with Sketch.</desc>
    <defs>
        <polygon id="path-1" points="49.8214286 0.269538462 0.535714286 0.269538462 0.535714286 29.0381538 49.8214286 29.0381538 49.8214286 14.6538462"></polygon>
        <polygon id="path-3" points="0.178083665 12.9230769 10.0915649 12.9230769 10.0915649 0.00148251511 0.178083665 0.00148251511 0.178083665 12.9230769"></polygon>
    </defs>
    <g id="Symbols" stroke="none" stroke-width="1" fill="none" fill-rule="evenodd">
        <g id="Page-1">
            <g id="Group-3" transform="translate(0.000000, 0.346769)">
                <mask id="mask-2" fill="white">
                    <use xlink:href="#path-1"></use>
                </mask>
                <g id="Clip-2"></g>
                <path d="M38.0357143,27.192 L12.3214286,27.192 C7.185,27.192 2.67857143,23.0584615 2.67857143,18.3452308 C2.67857143,13.6338462 7.185,9.49846154 12.3214286,9.49846154 C13.6714286,9.49846154 15.0042857,9.75323077 16.2835714,10.2516923 C16.5964286,10.3753846 16.9564286,10.3587692 17.2564286,10.2129231 C17.5542857,10.0670769 17.7535714,9.80492308 17.79,9.51323077 C18.3321429,5.29476923 22.4292857,2.11384615 27.3214286,2.11384615 C31.8964286,2.11384615 35.8714286,4.91630769 36.7714286,8.77661538 C36.8721429,9.20861538 37.3135714,9.51876923 37.8214286,9.51876923 C37.9264286,9.528 38.0035714,9.50953846 38.0357143,9.49846154 C43.1721429,9.49846154 47.6785714,13.6338462 47.6785714,18.3452308 C47.6785714,23.0584615 43.1721429,27.192 38.0357143,27.192 M38.6635714,7.66892308 C37.2514286,3.33784615 32.6142857,0.267692308 27.3214286,0.267692308 C21.795,0.267692308 17.0978571,3.57969231 15.8892857,8.14338462 C14.7257143,7.81661538 13.53,7.65230769 12.3214286,7.65230769 C5.93357143,7.65230769 0.535714286,12.5501538 0.535714286,18.3452308 C0.535714286,24.1421538 5.93357143,29.0381538 12.3214286,29.0381538 L38.0357143,29.0381538 C44.4235714,29.0381538 49.8214286,24.1421538 49.8214286,18.3452308 C49.8214286,12.7403077 44.7728571,7.97723077 38.6635714,7.66892308" id="Fill-1" fill="#FFFFFF" mask="url(#mask-2)"></path>
            </g>
            <g id="Group-6" transform="translate(12.857143, 33.577538)">
                <mask id="mask-4" fill="white">
                    <use xlink:href="#path-3"></use>
                </mask>
                <g id="Clip-5"></g>
                <path d="M0.505285714,12.6635077 C0.713142857,12.8370462 0.981,12.9238154 1.251,12.9238154 C1.53171429,12.9238154 1.81028571,12.8296615 2.02028571,12.6413538 L8.80671429,6.60258462 C9.10457143,6.33673846 9.19028571,5.94166154 9.02314286,5.60012308 C8.85385714,5.26043077 8.466,5.03889231 8.03528571,5.03889231 L5.45528571,5.03889231 L9.74957143,1.60135385 C10.1824286,1.25427692 10.2081429,0.669046154 9.80528571,0.296123077 C9.40242857,-0.0768 8.72314286,-0.0989538462 8.29028571,0.248123077 L1.99885714,5.28443077 C1.67528571,5.54289231 1.57028571,5.94535385 1.731,6.29796923 C1.89171429,6.65243077 2.28814286,6.88504615 2.72742857,6.88504615 L5.50671429,6.88504615 L0.479571429,11.3582769 C0.0681428571,11.7238154 0.0788571429,12.3090462 0.505285714,12.6635077" id="Fill-4" fill="#FFFFFF" mask="url(#mask-4)"></path>
            </g>
            <path d="M30.7637143,39.1088 L36.1144286,34.4989538 C36.5322857,34.1389538 36.5322857,33.5537231 36.1144286,33.1937231 C35.6965714,32.8337231 35.0172857,32.8337231 34.5994286,33.1937231 L29.2487143,37.8035692 C28.8308571,38.1635692 28.8308571,38.7488 29.2487143,39.1088 C29.4587143,39.2897231 29.733,39.3783385 30.0051429,39.3783385 C30.2815714,39.3783385 30.5537143,39.2897231 30.7637143,39.1088" id="Fill-7" fill="#FFFFFF"></path>
            <path d="M25.4003571,43.7295385 L27.5432143,41.8833846 C27.9610714,41.5233846 27.9610714,40.9381538 27.5432143,40.5781538 C27.1253571,40.2181538 26.4460714,40.2181538 26.0282143,40.5781538 L23.8853571,42.4243077 C23.4675,42.7843077 23.4675,43.3695385 23.8853571,43.7295385 C24.0953571,43.9104615 24.3696429,43.9990769 24.6439286,43.9990769 C24.9160714,43.9990769 25.1903571,43.9104615 25.4003571,43.7295385" id="Fill-9" fill="#FFFFFF"></path>
            <path d="M7.19228571,39.1088 L12.543,34.4989538 C12.9608571,34.1389538 12.9608571,33.5537231 12.543,33.1937231 C12.1251429,32.8337231 11.4458571,32.8337231 11.028,33.1937231 L5.67728571,37.8035692 C5.25942857,38.1635692 5.25942857,38.7488 5.67728571,39.1088 C5.88728571,39.2897231 6.16157143,39.3783385 6.43371429,39.3783385 C6.71014286,39.3783385 6.98228571,39.2897231 7.19228571,39.1088" id="Fill-11" fill="#FFFFFF"></path>
            <path d="M1.82892857,43.7295385 L3.97178571,41.8833846 C4.38964286,41.5233846 4.38964286,40.9381538 3.97178571,40.5781538 C3.55392857,40.2181538 2.87464286,40.2181538 2.45678571,40.5781538 L0.313928571,42.4243077 C-0.103928571,42.7843077 -0.103928571,43.3695385 0.313928571,43.7295385 C0.523928571,43.9104615 0.798214286,43.9990769 1.0725,43.9990769 C1.34464286,43.9990769 1.61892857,43.9104615 1.82892857,43.7295385" id="Fill-13" fill="#FFFFFF"></path>
        </g>
    </g>
</svg>